<svg id="Layer_1" data-name="Layer 1" xmlns="http://www.w3.org/2000/svg" viewBox="0 0 960 416"><defs><style>.cls-1{fill:#f05a22;}.cls-2{fill:#fff;}.cls-3{fill:none;}</style></defs><title>02-kk-logo-col-blk</title><rect width="960" height="416"/><path class="cls-1" d="M146.15,114.71v90.74a3.44,3.44,0,0,1-2.79,3.38c-11.57,2.2-55.13,8-55.13-28.75v-65c0-35.7,57.92-36.5,57.92-.42"/><path class="cls-1" d="M225.4,177.26V268a3.44,3.44,0,0,1-2.79,3.38c-11.57,2.2-55.13,8-55.13-28.75V177.68c0-35.7,57.92-36.5,57.92-.42"/><path class="cls-1" d="M304.65,232.17V322.9a3.44,3.44,0,0,1-2.79,3.38c-11.57,2.2-55.13,8-55.13-28.75V232.58c0-35.7,57.92-36.5,57.92-.41"/><path class="cls-2" d="M418,227.8l34.54,44.33H428.33l-28.89-38.81v38.81H379.1V184.22h20.34v39.05l29-39.05h24.12Z"/><path class="cls-2" d="M451.81,241.86c0-18.46,12.82-31.9,33.66-31.9S519,223.4,519,241.86s-12.81,31.9-33.53,31.9S451.81,260.32,451.81,241.86Zm48.1,0c0-9.17-5.4-15.7-14.44-15.7S471,232.69,471,241.86s5.27,15.7,14.44,15.7S499.91,251,499.91,241.86Z"/><path class="cls-2" d="M530.05,211.6h19.22v8.79c3.52-6.79,10.42-10.43,19.59-10.43,14.69,0,22.1,8.29,22.1,24.74v37.43H571.62V241c0-10.17-2.89-14.82-10.67-14.82s-11.68,5-11.68,14.32v31.65H530.05Z"/><path class="cls-2" d="M643.59,256.81v15.32a75.46,75.46,0,0,1-12.81,1c-9,0-21.48-2-21.48-22.23V226.79h-9.54V211.6h9.54v-18h19.22v18H642.2v15.19H628.52v20.1c0,8.91,3.64,10.29,8.41,10.29A54.75,54.75,0,0,0,643.59,256.81Z"/><path class="cls-2" d="M713.66,247.14H669c.38,7.91,5.66,12.18,14.2,12.18,5.9,0,9.67-1.63,11.3-5.4h18.84c-1.89,11.93-14.07,19.84-30.14,19.84-20.6,0-33.28-11.68-33.28-31.9,0-19.84,12.93-31.9,32.65-31.9,18.84,0,31.65,11.68,31.65,28.76A65.16,65.16,0,0,1,713.66,247.14ZM695.2,235.21c-.12-8-4.64-12.31-12.81-12.31s-13.31,4.9-13.44,12.31Z"/><path class="cls-2" d="M725.22,211.6h19.21v8.79C748,213.6,754.86,210,764,210c14.7,0,22.11,8.29,22.11,24.74v37.43H766.79V241c0-10.17-2.89-14.82-10.68-14.82s-11.68,5-11.68,14.32v31.65H725.22Z"/><path class="cls-2" d="M838.75,256.81v15.32a75.26,75.26,0,0,1-12.81,1c-9,0-21.47-2-21.47-22.23V226.79h-9.55V211.6h9.55v-18h19.21v18h13.69v15.19H823.68v20.1c0,8.91,3.64,10.29,8.42,10.29A54.69,54.69,0,0,0,838.75,256.81Z"/><path class="cls-1" d="M849.05,261.08a12.44,12.44,0,1,1,12.43,12.3A12.28,12.28,0,0,1,849.05,261.08Z"/><rect class="cls-3" width="960" height="416"/></svg>